<?xml version="1.0" encoding="iso-8859-1"?>
<!-- Generator: Adobe Illustrator 19.0.0, SVG Export Plug-In . SVG Version: 6.00 Build 0)  -->
<svg version="1.1" id="Capa_1" xmlns="http://www.w3.org/2000/svg" xmlns:xlink="http://www.w3.org/1999/xlink" x="0px" y="0px"
	 viewBox="0 0 512.001 512.001" style="enable-background:new 0 0 512.001 512.001;" xml:space="preserve">
<path style="fill:#F7EEE2;" d="M350.319,0H75.53C63.941,0,54.546,9.395,54.546,20.985v470.031c0,11.59,9.395,20.985,20.985,20.985
	H436.47c11.589,0,20.985-9.395,20.985-20.985v-383.88L350.319,0z"/>
<path style="fill:#BFBEBE;" d="M350.319,83.817V0l107.136,107.135h-83.817C360.759,107.135,350.319,96.696,350.319,83.817z"/>
<g>
	<path style="fill:#F0CB4D;" d="M116.461,82.724h132.814c4.268,0,7.728-3.46,7.728-7.728s-3.46-7.728-7.728-7.728H116.461
		c-4.268,0-7.728,3.46-7.728,7.728S112.193,82.724,116.461,82.724z"/>
	<path style="fill:#F0CB4D;" d="M116.461,150.513H395.54c4.269,0,7.728-3.46,7.728-7.728c0-4.269-3.46-7.728-7.728-7.728H116.461
		c-4.268,0-7.728,3.46-7.728,7.728C108.732,147.053,112.193,150.513,116.461,150.513z"/>
	<path style="fill:#F0CB4D;" d="M395.54,202.844H116.461c-4.268,0-7.728,3.46-7.728,7.728c0,4.269,3.46,7.728,7.728,7.728H395.54
		c4.269,0,7.728-3.46,7.728-7.728C403.268,206.303,399.808,202.844,395.54,202.844z"/>
	<path style="fill:#F0CB4D;" d="M395.54,270.633H116.461c-4.268,0-7.728,3.46-7.728,7.728s3.46,7.728,7.728,7.728H395.54
		c4.269,0,7.728-3.46,7.728-7.728S399.808,270.633,395.54,270.633z"/>
	<path style="fill:#F0CB4D;" d="M212.832,406.208h-96.371c-4.268,0-7.728,3.46-7.728,7.728s3.46,7.728,7.728,7.728h96.371
		c4.268,0,7.728-3.46,7.728-7.728S217.1,406.208,212.832,406.208z"/>
	<path style="fill:#F0CB4D;" d="M212.832,338.42h-96.371c-4.268,0-7.728,3.46-7.728,7.728s3.46,7.728,7.728,7.728h96.371
		c4.268,0,7.728-3.46,7.728-7.728S217.1,338.42,212.832,338.42z"/>
</g>
<path style="fill:#E5D8C6;" d="M403.253,107.136L403.253,107.136v383.88c0,11.59-9.395,20.985-20.985,20.985h54.201
	c11.589,0,20.984-9.395,20.984-20.985v-383.88l0,0L403.253,107.136L403.253,107.136z"/>
<polygon style="fill:#53E7D3;" points="375.909,469.476 348.07,455.562 320.231,469.476 320.231,367.867 375.909,367.867 "/>
<path style="fill:#FF6991;" d="M375.297,324.68c-11.058,0-20.902,5.195-27.227,13.277c-6.325-8.082-16.169-13.277-27.227-13.277
	c-19.083,0-34.554,15.47-34.554,34.554c0,43.414,61.781,67.589,61.781,67.589s61.781-24.175,61.781-67.589
	C409.851,340.151,394.38,324.68,375.297,324.68z"/>
<path style="fill:#FF507E;" d="M409.851,359.234c0-19.084-15.47-34.554-34.554-34.554c-11.058,0-20.902,5.195-27.227,13.277v88.865
	C348.07,426.823,409.851,402.648,409.851,359.234z"/>
<g>
</g>
<g>
</g>
<g>
</g>
<g>
</g>
<g>
</g>
<g>
</g>
<g>
</g>
<g>
</g>
<g>
</g>
<g>
</g>
<g>
</g>
<g>
</g>
<g>
</g>
<g>
</g>
<g>
</g>
</svg>
