<?xml version="1.0"?>
<svg xmlns="http://www.w3.org/2000/svg" xmlns:xlink="http://www.w3.org/1999/xlink" version="1.1" id="Capa_1" x="0px" y="0px" viewBox="0 0 512 512" style="enable-background:new 0 0 512 512;" xml:space="preserve" width="512px" height="512px"><g transform="matrix(0.552684 0 0 0.552684 114.513 114.513)"><path style="fill:#FFB125;" d="M186.048,349.023h-50.597v-106.18c0-9.412,7.63-17.042,17.042-17.042l0,0  c8.413,0,15.567,6.139,16.844,14.454L186.048,349.023z" data-original="#FFB125"/><path style="fill:#FF901D;" d="M152.493,225.801c-0.334,0-0.66,0.031-0.988,0.05l9.416,123.172h25.127l-16.71-108.768  c-0.426-2.772-1.758-5.614-3.632-8.173C162.559,228.223,157.775,225.801,152.493,225.801z" data-original="#FF901D"/><path style="fill:#1BCCC7;" d="M376.243,312.894l-36.958-63.752c-1.833-3.163-5.213-5.11-8.868-5.11l0,0  c-7.029,0-11.973,6.914-9.7,13.566l22.521,65.904h33.005L376.243,312.894" data-original="#1BCCC7"/><path style="fill:#53E7D3;" d="M363.089,323.502h13.154v-10.608l-36.958-63.752c-1.833-3.163-5.212-5.11-8.868-5.11  c-1.817,0-3.49,0.469-4.94,1.269L363.089,323.502z" data-original="#53E7D3"/><path style="fill:#7F7FBF;" d="M491.012,349.374c0-12.486-9.281-23.026-21.667-24.606l-93.102-11.874H162.486  c-8.164,0-14.783-6.619-14.783-14.783l0,0c0-8.8-7.642-15.652-16.39-14.695l-93.68,10.246c-10.057,1.1-17.673,9.595-17.673,19.712  v64.447H9.98c-5.512,0-9.98,4.468-9.98,9.98v11.283c0,5.883,4.769,10.653,10.653,10.653h480.36v-60.363H491.012z" data-original="#7F7FBF"/><g>
	<path style="fill:#7272AF;" d="M19.96,377.821L19.96,377.821H9.98c-0.323,0-0.642,0.018-0.957,0.048   c-0.218,0.021-0.432,0.056-0.645,0.092c-0.085,0.014-0.171,0.023-0.255,0.039c-0.276,0.053-0.549,0.118-0.817,0.194   c-0.013,0.004-0.026,0.006-0.039,0.01c-0.283,0.081-0.561,0.174-0.834,0.278c-0.001,0-0.002,0.001-0.003,0.001   c-0.257,0.098-0.508,0.206-0.754,0.324c-0.001,0-0.001,0.001-0.002,0.001c-0.303,0.146-0.597,0.305-0.882,0.479   c-0.002,0.001-0.003,0.002-0.005,0.003c-0.285,0.174-0.56,0.362-0.825,0.563c-0.001,0.001-0.001,0.001-0.002,0.002   c-0.34,0.258-0.667,0.531-0.97,0.829c-0.014,0.013-0.029,0.025-0.042,0.038c-0.008,0.007-0.016,0.014-0.024,0.022   c-0.452,0.452-0.86,0.946-1.219,1.477c-0.179,0.266-0.346,0.54-0.5,0.823c-0.186,0.343-0.346,0.701-0.491,1.066   c-0.203,0.509-0.368,1.037-0.486,1.583c-0.018,0.086-0.033,0.173-0.05,0.26c-0.041,0.218-0.074,0.438-0.101,0.66   c-0.011,0.089-0.022,0.178-0.031,0.269C0.019,387.185,0,387.491,0,387.801v11.283c0,0.735,0.074,1.453,0.216,2.147   c0.071,0.347,0.159,0.687,0.263,1.021c1.037,3.336,3.67,5.968,7.006,7.006c1.001,0.311,2.065,0.479,3.168,0.479h480.36v-31.922   L19.96,377.821z" data-original="#7272AF"/>
	<path style="fill:#7272AF;" d="M469.346,324.768l-45.98-5.864c8.246,4.084,13.81,12.556,13.81,22.213v68.619h53.836v-60.363   C491.012,336.888,481.731,326.348,469.346,324.768z" data-original="#7272AF"/>
</g><path style="fill:#B4D1D3;" d="M503.177,379.194h-66.001v30.542h65.231c5.298,0,9.593-4.295,9.593-9.593v-12.127  C512,383.144,508.05,379.194,503.177,379.194z" data-original="#B4D1D3"/><path style="fill:#A1C2C6;" d="M502.407,394.465h-65.231v15.271h65.231c5.298,0,9.593-4.295,9.593-9.593v-12.127  c0-0.528-0.055-1.043-0.144-1.546C511.094,391.006,507.159,394.465,502.407,394.465z" data-original="#A1C2C6"/><circle style="fill:#4D4A5B;" cx="406.07" cy="404.82" r="49.785" data-original="#4D4A5B"/><path style="fill:#3A3847;" d="M441.271,440.022c19.442-19.442,19.442-50.964,0-70.406l-70.406,70.406  C390.307,459.465,421.829,459.465,441.271,440.022z" data-original="#3A3847"/><path style="fill:#F0CB4D;" d="M180.882,335.371h-15.826c-4.275,0-7.74,3.465-7.74,7.74c0,4.275,3.465,7.74,7.74,7.74h15.826  c4.275,0,7.74-3.465,7.74-7.74C188.623,338.836,185.158,335.371,180.882,335.371z" data-original="#F0CB4D"/><circle style="fill:#B4D1D3;" cx="406.07" cy="404.82" r="19.91" data-original="#B4D1D3"/><path style="fill:#FF6991;" d="M301.258,57.396c-18.381,0-34.745,8.635-45.258,22.069c-10.513-13.434-26.877-22.069-45.258-22.069  c-31.721,0-57.437,25.715-57.437,57.437C153.305,186.997,256,227.181,256,227.181s102.695-40.185,102.695-112.349  C358.695,83.111,332.979,57.396,301.258,57.396z" data-original="#FF6991"/><path style="fill:#FF507E;" d="M301.258,57.396c-9.897,0-19.198,2.522-27.327,6.93c17.907,9.725,30.064,28.696,30.064,50.507  c0,44.815-23.545,83.82-48.087,112.313c0.057,0.023,0.091,0.036,0.091,0.036s102.695-40.185,102.695-112.349  C358.695,83.111,332.979,57.396,301.258,57.396z" data-original="#FF507E"/><path style="fill:#B4D1D3;" d="M9.98,377.821c-1.252,0-2.445,0.241-3.549,0.661c-0.258,0.098-0.509,0.207-0.756,0.325  c-0.609,0.292-1.182,0.642-1.715,1.046c-0.341,0.259-0.668,0.532-0.973,0.831c-0.021,0.02-0.044,0.038-0.065,0.059  c-0.452,0.452-0.86,0.946-1.219,1.477c-0.179,0.265-0.346,0.54-0.5,0.823c-0.307,0.566-0.561,1.164-0.756,1.789  C0.157,385.771,0,386.768,0,387.801v11.283c0,5.883,4.769,10.653,10.653,10.653h64.875v-31.922L9.98,377.821z" data-original="#B4D1D3"/><path style="fill:#A1C2C6;" d="M0.272,385.486C0.096,386.229,0,387.004,0,387.801v11.283c0,5.883,4.769,10.653,10.653,10.653h64.875  v-15.961H10.653C5.583,393.775,1.348,390.23,0.272,385.486z" data-original="#A1C2C6"/><g>
	<circle style="fill:#4D4A5B;" cx="100.55" cy="404.82" r="49.785" data-original="#4D4A5B"/>
	<circle style="fill:#4D4A5B;" cx="100.55" cy="404.82" r="49.785" data-original="#4D4A5B"/>
</g><path style="fill:#3A3847;" d="M135.748,440.022c19.442-19.442,19.442-50.964,0-70.406l-70.406,70.406  C84.784,459.465,116.306,459.465,135.748,440.022z" data-original="#3A3847"/><circle style="fill:#B4D1D3;" cx="100.55" cy="404.82" r="19.91" data-original="#B4D1D3"/></g> </svg>
