<?xml version="1.0" encoding="iso-8859-1"?>
<!-- Generator: Adobe Illustrator 19.0.0, SVG Export Plug-In . SVG Version: 6.00 Build 0)  -->
<svg version="1.1" id="Capa_1" xmlns="http://www.w3.org/2000/svg" xmlns:xlink="http://www.w3.org/1999/xlink" x="0px" y="0px"
	 viewBox="0 0 512 512" style="enable-background:new 0 0 512 512;" xml:space="preserve">
<path style="fill:#F2EBDA;" d="M499.589,470.668H0V112.443h499.589c6.855,0,12.411,5.557,12.411,12.411v333.402
	C512,465.111,506.443,470.668,499.589,470.668z"/>
<path style="fill:#E5D8C6;" d="M499.589,112.443h-54.272c6.855,0,12.411,5.557,12.411,12.411v292.357
	c0,13.947-11.307,25.254-25.254,25.254H0v28.202h499.589c6.855,0,12.411-5.557,12.411-12.411v-28.202v-305.2
	C512,118,506.443,112.443,499.589,112.443z"/>
<path style="fill:#F6D563;" d="M446.316,399.086L0,470.668V112.443l442.385-70.951c7.542-1.21,14.377,4.616,14.377,12.255v333.085
	C456.762,392.927,452.335,398.121,446.316,399.086z"/>
<path style="fill:#FFC850;" d="M442.385,41.492L402.49,47.89v314.977c0,6.096-4.427,11.289-10.446,12.255L0,437.999v32.669
	l446.316-71.581c6.019-0.965,10.446-6.159,10.446-12.255V53.746C456.762,46.108,449.927,40.282,442.385,41.492z"/>
<g>
	<path style="fill:#FFFFFF;" d="M153.064,386.771c-3.734,0-7.021-2.709-7.632-6.514c-0.677-4.22,2.196-8.189,6.415-8.866
		l170.299-27.313c4.224-0.679,8.189,2.196,8.866,6.415c0.677,4.22-2.196,8.189-6.415,8.866l-170.299,27.313
		C153.883,386.739,153.471,386.771,153.064,386.771z"/>
	<path style="fill:#FFFFFF;" d="M153.064,348.205c-3.734,0-7.021-2.709-7.632-6.514c-0.677-4.22,2.196-8.189,6.415-8.866
		l170.299-27.313c4.224-0.676,8.189,2.195,8.866,6.415s-2.196,8.189-6.415,8.866l-170.299,27.313
		C153.883,348.173,153.471,348.205,153.064,348.205z"/>
</g>
<path style="fill:#FF9FAF;" d="M194.023,140.624c15.835-1.511,29.919,4.544,38.966,15.191c9.042-12.376,23.105-21.112,38.891-22.618
	c27.215-2.596,49.297,17.283,49.356,44.43c0.133,61.892-88.246,105.194-88.246,105.194s-88.766-25.918-88.632-88.106
	C144.416,167.437,166.667,143.233,194.023,140.624z"/>
<path style="fill:#EF92A6;" d="M321.235,177.627c-0.058-27.147-22.141-47.026-49.355-44.43
	c-15.786,1.506-29.849,10.242-38.891,22.618l0.001,127.006C232.989,282.82,321.369,239.519,321.235,177.627z"/>
<g>
</g>
<g>
</g>
<g>
</g>
<g>
</g>
<g>
</g>
<g>
</g>
<g>
</g>
<g>
</g>
<g>
</g>
<g>
</g>
<g>
</g>
<g>
</g>
<g>
</g>
<g>
</g>
<g>
</g>
</svg>
